<svg id="Capa_1" data-name="Capa 1" xmlns="http://www.w3.org/2000/svg" viewBox="0 0 201.16 177.38"><g style="opacity:0.7000000000000001"><path d="M50.39,163.29a11.84,11.84,0,0,1-9.92,5.29,12.29,12.29,0,0,1,0-24.57,11.84,11.84,0,0,1,9.92,5.29v-4a1.16,1.16,0,0,1,2.32,0v21.92a1.16,1.16,0,1,1-2.32,0Zm0-6.58v-.83a10.16,10.16,0,1,0,0,.83Z" style="fill:#fff"/><path d="M63.92,161.67a1.07,1.07,0,0,1,1,.79,4.65,4.65,0,0,0,4.91,4,4.42,4.42,0,0,0,4.68-4.26c0-2.78-2-4.13-4.73-5-3.42-1.12-6.67-2.37-6.67-6.77,0-3.66,2.78-6.4,6.77-6.4s6.81,2.46,6.81,5.8a1,1,0,0,1-1.07,1.06,1,1,0,0,1-1-.88,4.44,4.44,0,0,0-4.73-3.94,4.23,4.23,0,0,0-4.54,4.36c0,3,2.5,4.08,5.65,5.05,3,.88,5.84,2.64,5.84,6.72a6.72,6.72,0,0,1-7,6.4c-3.94,0-7-2.78-7-5.84A1.06,1.06,0,0,1,63.92,161.67Z" style="fill:#fff"/><path d="M85.88,156.3A12.11,12.11,0,0,1,98,144a11.89,11.89,0,0,1,8.06,3.06,1.31,1.31,0,0,1,.42.93,1.33,1.33,0,0,1-.42.93l-9.4,11.21a1.09,1.09,0,0,1-2-.65,1.2,1.2,0,0,1,.28-.74l8.9-10.47A8.86,8.86,0,0,0,98,146.14a10.16,10.16,0,0,0,0,20.31,9.42,9.42,0,0,0,7.41-3.53,1.57,1.57,0,0,1,1-.51,1.12,1.12,0,0,1,1.16,1.12,1.7,1.7,0,0,1-.37.83A11.94,11.94,0,0,1,98,168.58,12.1,12.1,0,0,1,85.88,156.3Z" style="fill:#fff"/><path d="M115.92,156.3a12,12,0,0,1,12-12.29,11.84,11.84,0,0,1,9.92,5.29v-4a1.16,1.16,0,0,1,2.32,0v19.84a12.09,12.09,0,0,1-12.29,12.23,11.9,11.9,0,0,1-9-3.94,1.31,1.31,0,0,1-.38-.83,1.07,1.07,0,0,1,1.12-1.11,1.57,1.57,0,0,1,1,.51,9.61,9.61,0,0,0,7.27,3.24,9.92,9.92,0,0,0,10-10.1v-1.86a11.84,11.84,0,0,1-9.92,5.29A12,12,0,0,1,115.92,156.3Zm21.92.41v-.41a9.95,9.95,0,1,0,0,.41Z" style="fill:#fff"/><path d="M151.42,145.31a1.12,1.12,0,0,1,1.15-1.16,1.15,1.15,0,0,1,1.16,1.16V158c0,5.61,3.39,8.49,7.6,8.49s7.61-2.88,7.61-8.49V145.31a1.16,1.16,0,1,1,2.31,0v12.61c0,6.81-4.35,10.66-9.92,10.66s-9.91-3.85-9.91-10.66Z" style="fill:#fff"/></g><g style="opacity:0.7000000000000001"><path d="M168.25,6.49c-.94-3.57-3.94-4.44-6.65-1.93L30.05,126c-2.71,2.51-1.91,4.56,1.78,4.56H194.45a4.91,4.91,0,0,0,5-6.49Z" style="fill:#fff"/></g><g style="opacity:0.7000000000000001"><path d="M139.46,6.49c-1-3.57-3.94-4.44-6.66-1.93L1.26,126c-2.71,2.51-1.91,4.56,1.78,4.56H165.65a4.92,4.92,0,0,0,5-6.49Z" style="fill:#fff"/></g><rect x="-134.05" y="-147.33" width="465.58" height="469.92" style="fill:none"/></svg>