<svg id="Capa_1" data-name="Capa 1" xmlns="http://www.w3.org/2000/svg" viewBox="0 0 841.89 211.64"><path d="M63.43,143.93a27.77,27.77,0,0,1-14.53-3.84,28.08,28.08,0,0,1-10.16-10.48,29.88,29.88,0,0,1-3.74-15,29.5,29.5,0,0,1,3.84-15.06A28.4,28.4,0,0,1,49.32,89.11a29.31,29.31,0,0,1,15-3.84,29,29,0,0,1,14.9,3.84A28.57,28.57,0,0,1,89.61,99.59a30.27,30.27,0,0,1,4,15.06l-3.27,2.53a26.61,26.61,0,0,1-3.53,13.64,26,26,0,0,1-9.58,9.58A26.74,26.74,0,0,1,63.43,143.93Zm.85-7.37a20.93,20.93,0,0,0,10.9-2.85,20.62,20.62,0,0,0,7.58-7.84,24.06,24.06,0,0,0,0-22.49,21.13,21.13,0,0,0-7.58-7.84,21.84,21.84,0,0,0-21.75,0,21.42,21.42,0,0,0-7.69,7.84,23.68,23.68,0,0,0,0,22.49,20.88,20.88,0,0,0,18.54,10.69Zm25.17,6.84a4.07,4.07,0,0,1-3-1.1,3.83,3.83,0,0,1-1.16-2.9v-18l2-8.32,6.22,1.58V139.4a3.83,3.83,0,0,1-1.16,2.9A4.1,4.1,0,0,1,89.45,143.4Z" style="fill:#fff"/><path d="M134.42,144A28.28,28.28,0,0,1,121,140.93a22.82,22.82,0,0,1-9.32-9.11,29.14,29.14,0,0,1-3.42-14.64V89.8a4,4,0,0,1,4-4,4,4,0,0,1,3,1.16,3.89,3.89,0,0,1,1.16,2.85v27.38a21,21,0,0,0,2.47,10.74,15.79,15.79,0,0,0,6.74,6.32,22.9,22.9,0,0,0,19,.11,16.62,16.62,0,0,0,6.58-5.48,13.46,13.46,0,0,0,2.43-7.9h5.79A23.45,23.45,0,0,1,146.85,141,25.77,25.77,0,0,1,134.42,144Zm23.17-.64a3.9,3.9,0,0,1-2.9-1.1,4.09,4.09,0,0,1-1.1-3V89.8a3.79,3.79,0,0,1,4-4,4.11,4.11,0,0,1,2.95,1.11,3.83,3.83,0,0,1,1.16,2.9v49.5a4,4,0,0,1-1.16,3A4.1,4.1,0,0,1,157.59,143.4Z" style="fill:#fff"/><path d="M177,95a3.7,3.7,0,0,1-2.64-1,3.29,3.29,0,0,1-1.05-2.48,3.41,3.41,0,0,1,1.05-2.58,3.66,3.66,0,0,1,2.64-1h26.85a3.68,3.68,0,0,1,2.64,1,3.41,3.41,0,0,1,1,2.58,3.29,3.29,0,0,1-1,2.48,3.72,3.72,0,0,1-2.64,1Zm26.22,48.44a18.7,18.7,0,0,1-16.85-9.84,21.3,21.3,0,0,1-2.53-10.48V71.58a4.08,4.08,0,0,1,1.11-3,3.83,3.83,0,0,1,2.89-1.16,4,4,0,0,1,4.11,4.11v51.5a12.47,12.47,0,0,0,3.16,8.79,10.55,10.55,0,0,0,8.11,3.42H206a3.53,3.53,0,0,1,2.74,1.16,4.25,4.25,0,0,1,1.06,3,3.65,3.65,0,0,1-1.27,2.9,4.59,4.59,0,0,1-3.16,1.1Z" style="fill:#fff"/><path d="M249.22,143.93a29.83,29.83,0,0,1-15.07-3.79,27.54,27.54,0,0,1-10.42-10.43,32,32,0,0,1,0-30.22,27.54,27.54,0,0,1,10.42-10.43,29.83,29.83,0,0,1,15.07-3.79,29.49,29.49,0,0,1,15,3.79A27.65,27.65,0,0,1,274.6,99.49a30.85,30.85,0,0,1,3.89,15.16,29.5,29.5,0,0,1-3.84,15.06,28,28,0,0,1-10.43,10.43A29.49,29.49,0,0,1,249.22,143.93Zm0-7.37a21.19,21.19,0,0,0,11-2.85,20.12,20.12,0,0,0,7.58-7.79,22.85,22.85,0,0,0,2.74-11.27,23.15,23.15,0,0,0-2.74-11.32,20.15,20.15,0,0,0-7.58-7.85,22.55,22.55,0,0,0-21.91,0,20.55,20.55,0,0,0-7.63,7.85,22.86,22.86,0,0,0-2.79,11.32,22.56,22.56,0,0,0,2.79,11.27,20.53,20.53,0,0,0,7.63,7.79A21.2,21.2,0,0,0,249.22,136.56Z" style="fill:#fff"/><path d="M300.72,76.42a7,7,0,1,1,4.89-2A6.68,6.68,0,0,1,300.72,76.42Zm0,67a5.22,5.22,0,0,1-5.38-5.37V91.16a5.15,5.15,0,0,1,1.53-3.89,5.34,5.34,0,0,1,3.85-1.48,5.08,5.08,0,0,1,5.37,5.37V138a5.34,5.34,0,0,1-1.48,3.85A5.14,5.14,0,0,1,300.72,143.4Z" style="fill:#fff"/><path d="M331.47,143.51a5.21,5.21,0,0,1-5.37-5.37v-47a5.14,5.14,0,0,1,1.52-3.89,5.34,5.34,0,0,1,3.85-1.48,5.08,5.08,0,0,1,5.37,5.37v47a5.27,5.27,0,0,1-1.48,3.84A5.15,5.15,0,0,1,331.47,143.51Zm43.28,0a5.23,5.23,0,0,1-5.37-5.37V112.23a19.24,19.24,0,0,0-2.21-9.8,14,14,0,0,0-5.95-5.63A19.13,19.13,0,0,0,352.64,95a17.59,17.59,0,0,0-8,1.79,14.86,14.86,0,0,0-5.68,4.79,11.67,11.67,0,0,0-2.11,6.9H330.2a22.06,22.06,0,0,1,3.22-11.85,23.18,23.18,0,0,1,8.79-8.27,25.74,25.74,0,0,1,12.53-3,26.9,26.9,0,0,1,13,3.1,22.45,22.45,0,0,1,9.06,9.11q3.31,6,3.32,14.75v25.91a5.23,5.23,0,0,1-5.38,5.37Z" style="fill:#fff"/><path d="M418.88,143.82a39.88,39.88,0,0,1-13.64-2.26,26.09,26.09,0,0,1-9.74-5.74,4.6,4.6,0,0,1-1.32-3.84,5.06,5.06,0,0,1,2.06-3.53A5.48,5.48,0,0,1,400.4,127a5.7,5.7,0,0,1,3.53,1.84,16.68,16.68,0,0,0,5.74,3.74,21.55,21.55,0,0,0,8.79,1.74q6.1,0,9.32-2a6.22,6.22,0,0,0,3.32-5.17,6.43,6.43,0,0,0-3-5.47q-3.11-2.33-11.32-3.79-10.65-2.11-15.43-6.32a13.22,13.22,0,0,1-4.8-10.32,12.87,12.87,0,0,1,3.16-8.9,19.24,19.24,0,0,1,8.11-5.27,30.91,30.91,0,0,1,10.33-1.74,32.23,32.23,0,0,1,12.32,2.21A21.17,21.17,0,0,1,439,93.69a4.88,4.88,0,0,1,1.37,3.53,4.09,4.09,0,0,1-1.79,3.11,5.2,5.2,0,0,1-4,.74,7.56,7.56,0,0,1-3.89-1.9A14.41,14.41,0,0,0,425,95.69a24,24,0,0,0-7.06-.94,17.53,17.53,0,0,0-7.84,1.58q-3.21,1.58-3.21,4.63a6.07,6.07,0,0,0,1,3.42,8.3,8.3,0,0,0,3.95,2.74,50,50,0,0,0,8.63,2.37,46.93,46.93,0,0,1,12.48,4,16.74,16.74,0,0,1,6.59,5.64,13.76,13.76,0,0,1,2,7.42,15.46,15.46,0,0,1-2.58,8.74,17.83,17.83,0,0,1-7.59,6.22A29.72,29.72,0,0,1,418.88,143.82Z" style="fill:#fff"/><path d="M460.48,168.05a5.23,5.23,0,0,1-5.37-5.37v-48a30.36,30.36,0,0,1,3.9-15,28.13,28.13,0,0,1,10.32-10.48,29.07,29.07,0,0,1,40,10.48,29.3,29.3,0,0,1,3.84,15,31,31,0,0,1-3.52,14.9A27.38,27.38,0,0,1,500,140a26.67,26.67,0,0,1-25.23,1.26,26.89,26.89,0,0,1-8.89-7v28.44a5.33,5.33,0,0,1-1.48,3.84A5.16,5.16,0,0,1,460.48,168.05Zm23.6-33.7a18,18,0,0,0,9.58-2.58,18.7,18.7,0,0,0,6.69-7.06,21.93,21.93,0,0,0,0-20.22,18.7,18.7,0,0,0-6.69-7.06,19,19,0,0,0-19.12,0,18.16,18.16,0,0,0-6.68,7.06,22.25,22.25,0,0,0,0,20.22,18.08,18.08,0,0,0,16.22,9.64Z" style="fill:#fff"/><path d="M556.22,143.82a31.73,31.73,0,0,1-15.54-3.73,27.4,27.4,0,0,1-10.63-10.32,29.37,29.37,0,0,1-3.85-15.12,30.93,30.93,0,0,1,3.64-15.22,26.59,26.59,0,0,1,10-10.32,28.83,28.83,0,0,1,14.75-3.74A26.29,26.29,0,0,1,568.75,89a23.66,23.66,0,0,1,9,10,33.16,33.16,0,0,1,3.1,14.69A4.41,4.41,0,0,1,579.5,117a4.83,4.83,0,0,1-3.48,1.32H533.58v-8.43H575.7l-4.32,3a22.56,22.56,0,0,0-2.1-9.42,15.35,15.35,0,0,0-14.64-9,19.22,19.22,0,0,0-10.27,2.63,17,17,0,0,0-6.48,7.22,23.6,23.6,0,0,0-2.21,10.37A20.21,20.21,0,0,0,538.31,125a19.23,19.23,0,0,0,7.27,7.16,21.13,21.13,0,0,0,10.64,2.64,20.24,20.24,0,0,0,6.69-1.21,21.07,21.07,0,0,0,5.53-2.79,5.94,5.94,0,0,1,3.42-1.22,4.63,4.63,0,0,1,3.21,1.11,5,5,0,0,1,1.9,3.48,3.72,3.72,0,0,1-1.69,3.26,28.93,28.93,0,0,1-8.9,4.63A31.62,31.62,0,0,1,556.22,143.82Z" style="fill:#fff"/><path d="M618.57,143.82a29.23,29.23,0,0,1-15-3.84,27.7,27.7,0,0,1-10.32-10.43,29.62,29.62,0,0,1-3.74-14.9,30.64,30.64,0,0,1,3.69-15.16A26.7,26.7,0,0,1,603.3,89.11,28.76,28.76,0,0,1,618,85.37a26.14,26.14,0,0,1,20.64,9.48,3.79,3.79,0,0,1,1.06,3.48,5.55,5.55,0,0,1-2.32,3.16,4,4,0,0,1-3.26.68,6.37,6.37,0,0,1-3.27-1.84A16.93,16.93,0,0,0,618,94.85a18,18,0,0,0-9.48,2.48,17.11,17.11,0,0,0-6.42,6.9,22.07,22.07,0,0,0-2.32,10.42,21.08,21.08,0,0,0,2.37,10.11,18,18,0,0,0,6.58,7,18.4,18.4,0,0,0,9.8,2.58,21.07,21.07,0,0,0,6.47-.9,15.28,15.28,0,0,0,5.11-2.79,6.46,6.46,0,0,1,3.48-1.53,4.18,4.18,0,0,1,3.16,1,5.07,5.07,0,0,1,2,3.32,3.91,3.91,0,0,1-1.26,3.32Q629.94,143.82,618.57,143.82Z" style="fill:#fff"/><path d="M653.32,97a5,5,0,0,1-3.58-1.27,4.12,4.12,0,0,1-1.37-3.16,4.39,4.39,0,0,1,1.37-3.37,5.08,5.08,0,0,1,3.58-1.26h24.33a5.06,5.06,0,0,1,3.58,1.26,4.39,4.39,0,0,1,1.37,3.37,4.12,4.12,0,0,1-1.37,3.16A5,5,0,0,1,677.65,97ZM676.7,143.4a17.21,17.21,0,0,1-9.47-2.68,18.8,18.8,0,0,1-6.64-7.32A22.12,22.12,0,0,1,658.17,123V72.73a5.27,5.27,0,1,1,10.53,0V123A10.79,10.79,0,0,0,671,130a7.08,7.08,0,0,0,5.68,2.84h3.59a4.13,4.13,0,0,1,3.21,1.48,5.49,5.49,0,0,1,1.31,3.79,4.76,4.76,0,0,1-1.73,3.79,6.72,6.72,0,0,1-4.48,1.47Z" style="fill:#fff"/><path d="M724.1,143.82A29.77,29.77,0,0,1,709,140.09a27.07,27.07,0,0,1-10.27-10.32A30,30,0,0,1,695,114.65a30.23,30.23,0,0,1,3.74-15.22A27.07,27.07,0,0,1,709,89.11a32,32,0,0,1,30,0,27.07,27.07,0,0,1,10.27,10.32,30.33,30.33,0,0,1,3.74,15.22,30.4,30.4,0,0,1-3.69,15.12,26.72,26.72,0,0,1-10.21,10.32A29.83,29.83,0,0,1,724.1,143.82Zm0-9.47a18.52,18.52,0,0,0,9.69-2.53,17.75,17.75,0,0,0,6.58-6.95,21.33,21.33,0,0,0,2.37-10.22,21.64,21.64,0,0,0-2.37-10.27,17.62,17.62,0,0,0-6.58-7,19.82,19.82,0,0,0-19.38,0,18,18,0,0,0-6.64,7,21.31,21.31,0,0,0-2.42,10.27,21,21,0,0,0,2.42,10.22,18.12,18.12,0,0,0,6.64,6.95A18.5,18.5,0,0,0,724.1,134.35Z" style="fill:#fff"/><path d="M774.33,143.4a5.37,5.37,0,0,1-3.89-1.31,5.22,5.22,0,0,1-1.37-4V91.06a4.77,4.77,0,0,1,5.26-5.27,4.66,4.66,0,0,1,5.27,5.27v47.08a5.38,5.38,0,0,1-1.32,3.89A5.21,5.21,0,0,1,774.33,143.4Zm-.1-36a21,21,0,0,1,3.1-11.32,22.94,22.94,0,0,1,8.38-8,23.36,23.36,0,0,1,11.58-3q6.33,0,9.43,2.06c2.07,1.36,2.86,3,2.37,4.89a4.08,4.08,0,0,1-1.21,2.27,4.24,4.24,0,0,1-2.06,1,6.22,6.22,0,0,1-2.52-.11,29.65,29.65,0,0,0-12.12-.21,16.41,16.41,0,0,0-8.47,4.32,10.92,10.92,0,0,0-3.11,8Z" style="fill:#fff"/><path d="M64.7,124.35a9.59,9.59,0,0,1-9.58-9.58A9.73,9.73,0,0,1,64.7,105a9.1,9.1,0,0,1,6.78,2.9,9.67,9.67,0,0,1,.08,13.55A9,9,0,0,1,64.7,124.35Z" style="fill:#fff"/><path d="M64.7,124.35a4.84,4.84,0,1,1,3.39-8.22,4.83,4.83,0,0,1,0,6.78A4.52,4.52,0,0,1,64.7,124.35Z" style="fill:#7b5edb"/><rect x="728.05" y="133.37" width="13.28" height="42.43" rx="3.72" transform="translate(-13.48 217.06) rotate(-16.66)" style="fill:#fff"/><rect x="712.11" y="111.64" width="21.82" height="0.86" rx="0.24" transform="translate(48.75 396.11) rotate(-31.65)" style="fill:#bcbbbb"/><rect x="714.81" y="116.02" width="21.82" height="0.86" rx="0.24" transform="translate(46.85 398.18) rotate(-31.65)" style="fill:#bcbbbb"/></svg>