<svg id="Capa_1" data-name="Capa 1" xmlns="http://www.w3.org/2000/svg" viewBox="0 0 379.46 595.28"><polygon points="20.76 180.03 20.76 3.09 379.46 211.47 107.01 368.76 75.38 389.85 75.38 167.49 116.78 188.87 116.78 315.32 296.66 211.47 62.16 74.8 62.16 196.59 20.76 180.03" style="fill:#fff"/><polygon points="127.2 243.57 127.2 291.38 265.86 212.09 223.21 188.87 127.2 243.57" style="fill:#fff"/><polygon points="77.48 151.5 77.48 103.69 265.86 212.32 223.21 235.54 77.48 151.5" style="fill:#fff"/><polygon points="20.76 453.83 20.76 3.09 62.16 28.35 62.16 424.71 20.76 453.83" style="fill:#fff"/><path d="M21.69,566.15V537.48H33.56a7.59,7.59,0,0,1,3.41.76,8.68,8.68,0,0,1,2.69,2.08,10.61,10.61,0,0,1,1.77,2.91,8.64,8.64,0,0,1,.65,3.25,9.77,9.77,0,0,1-1,4.42,8.76,8.76,0,0,1-2.89,3.37,7.39,7.39,0,0,1-4.36,1.3H24.52v10.58Zm2.83-13.09h9.16a4.83,4.83,0,0,0,3-.93,6.12,6.12,0,0,0,1.94-2.42,7.73,7.73,0,0,0,.68-3.23,6.88,6.88,0,0,0-.8-3.27,6.55,6.55,0,0,0-2.12-2.36,5.14,5.14,0,0,0-2.89-.87H24.52Z" style="fill:#fff"/><path d="M69.21,537.48H71.6l11.91,28.67h-3l-3.58-9H63.83l-3.58,9h-3ZM76.05,555l-5.67-14.17L64.72,555Z" style="fill:#fff"/><path d="M103.13,566.15V537.48h12.12a7.47,7.47,0,0,1,3.39.76,8.88,8.88,0,0,1,2.68,2.08,10,10,0,0,1,1.78,2.91,8.82,8.82,0,0,1,.63,3.25,9.75,9.75,0,0,1-.79,3.88,8.69,8.69,0,0,1-2.22,3.07,7.36,7.36,0,0,1-3.37,1.65l7,11.07h-3.19l-6.74-10.58H106v10.58ZM106,553.06h9.37a4.83,4.83,0,0,0,3-.93,6,6,0,0,0,1.93-2.44,7.65,7.65,0,0,0,.69-3.21,6.64,6.64,0,0,0-.79-3.21,6.54,6.54,0,0,0-2.1-2.38,5,5,0,0,0-2.92-.91H106Z" style="fill:#fff"/><path d="M153.76,537.48h2.39l11.91,28.67h-3l-3.58-9H148.38l-3.58,9h-3ZM160.6,555l-5.66-14.17L149.27,555Z" style="fill:#fff"/><path d="M187.68,566.15V537.48h2.83v26.16h16.56v2.51Z" style="fill:#fff"/><path d="M226.73,566.15V537.48h2.83v26.16h16.55v2.51Z" style="fill:#fff"/><path d="M285,563.64v2.51H265.78V537.48h18.89V540H268.6v10.34h14v2.38h-14v10.94Z" style="fill:#fff"/><path d="M305.87,566.15V537.48h2.83v26.16h16.55v2.51Z" style="fill:#fff"/></svg>