<svg id="Capa_1" data-name="Capa 1" xmlns="http://www.w3.org/2000/svg" xmlns:xlink="http://www.w3.org/1999/xlink" viewBox="0 0 566.93 566.93"><defs><clipPath id="clip-path"><rect x="180.39" y="177.09" width="205.42" height="92.09" style="fill:none"/></clipPath><clipPath id="clip-path-2"><rect x="190.06" y="280.79" width="74.65" height="109.95" style="fill:none"/></clipPath></defs><g style="clip-path:url(#clip-path)"><path d="M185.94,279.89l3.51-3.82c11.32,10.71,23.86,16.21,39.47,16.21,18.51,0,30.59-10.09,30.59-23.55v-.31c0-12.54-7.19-19.27-33-24.63-26.16-5.2-36.41-13.46-36.41-28.9v-.31c0-15.3,14.54-27.69,34.73-27.69a56.41,56.41,0,0,1,36.4,12.55L258,203.57a52.46,52.46,0,0,0-33.5-11.93c-17.59,0-29.21,10.55-29.21,22.48v.31c0,12.39,7.18,19.27,33.19,24.62,26.61,5.36,36.25,13.92,36.25,28.91v.31c0,16.52-14.23,28.75-36.1,28.75C211.94,297,198,291.06,185.94,279.89Z" style="fill:#fff"/><path d="M331.76,187.66h4.89L387.43,295.5h-5.66l-14.53-31.21H301L286.33,295.5H281ZM365,259.55l-30.9-65.77L303.3,259.55Z" style="fill:#fff"/></g><path d="M293.36,343.15v-60.5h4.89v60.2c0,28.28,14.39,43.18,36.25,43.18,21.71,0,35.81-14.29,35.81-42.88v-60.5h4.89V342.7c0,31.77-16.54,48-40.85,48S293.36,374.62,293.36,343.15Z" style="fill:#fff"/><g style="clip-path:url(#clip-path-2)"><polygon points="224.71 287.2 186.63 287.2 186.63 282.46 268.15 282.46 268.15 287.2 229.91 287.2 229.91 389.53 224.71 389.53 224.71 287.2" style="fill:#fff"/></g></svg>